:FULLY-SPECIFIED
:DEGREES
1538
root 2.38239 16.4873 -4.38578 190.087 -103.015 -183.014
lowerback 0.506244 -0.0122667 2.8727
upperback 0.38339 -0.035226 2.43861
thorax 0.109474 -0.0270556 0.888307
lowerneck -19.3584 0.266254 1.8603
upperneck 20.6263 -0.0366914 -1.04042
head 9.73886 -0.0279127 -0.683457
rclavicle -4.77083e-015 -2.90226e-014
rhumerus -30.8016 -5.0546 -81.47
rradius 22.199
rwrist 27.7539
rhand -25.7523 1.7756
rfingers 7.12502
rthumb 0.785025 -28.2027
lclavicle -4.77083e-015 -2.90226e-014
lhumerus -26.771 1.2614 92.0026
lradius 19.001
lwrist -17.4251
lhand -21.3624 2.08819
lfingers 7.12502
lthumb 5.02442 32.0086
rfemur -19.1812 9.624 24.2618
rtibia 23.9321
rfoot -10.0457 -14.7171
rtoes -5.80365
lfemur -13.5632 -7.58273 -20.0323
ltibia 53.3593
lfoot -9.43349 3.47334
ltoes -18.6127
1539
root 2.38539 16.4915 -4.4012 191.11 -102.975 -184.114
lowerback 0.628565 0.0350891 3.16016
upperback 0.414219 0.0316133 2.48937
thorax 0.0732005 0.00566951 0.779428
lowerneck -19.3411 0.255298 1.85222
upperneck 20.5246 -0.0410557 -1.06536
head 9.69956 -0.0330992 -0.690735
rclavicle -1.59028e-015 -3.18055e-015
rhumerus -30.6202 -4.11525 -81.8091
rradius 22.5131
rwrist 27.0433
rhand -25.7501 1.76643
rfingers 7.12502
rthumb 0.787142 -28.2119
lclavicle -1.59028e-015 -3.18055e-015
lhumerus -26.8627 1.15101 92.0272
lradius 19.3764
lwrist -16.9644
lhand -21.2929 2.15325
lfingers 7.12502
lthumb 5.09151 32.0721
rfemur -18.3102 9.53923 24.7745
rtibia 23.1517
rfoot -10.0723 -14.5529
rtoes -5.90006
lfemur -14.756 -6.73965 -19.6257
ltibia 55.393
lfoot -10.456 4.28797
ltoes -18.236
1540
root 2.38729 16.4969 -4.41538 191.856 -102.919 -185.001
lowerback 0.819695 0.128438 3.4566
upperback 0.436193 0.165712 2.47382
thorax -0.00907171 0.0719376 0.596787
lowerneck -19.2183 0.221572 1.80942
upperneck 20.3934 -0.0931408 -0.975587
head 9.63003 -0.0498439 -0.658469
rclavicle -3.18055e-014 3.57812e-015
rhumerus -30.4359 -3.81397 -81.9197
rradius 22.5756
rwrist 27.0114
rhand -25.8029 1.92111
rfingers 7.12502
rthumb 0.73607 -28.0574
lclavicle -3.18055e-014 3.57812e-015
lhumerus -27.031 0.931875 92.0379
lradius 19.7147
lwrist -16.6576
lhand -21.5254 2.05608
lfingers 7.12502
lthumb 4.86709 31.9802
rfemur -17.4008 9.61488 25.2252
rtibia 22.5067
rfoot -10.2708 -14.4949
rtoes -5.35923
lfemur -15.8481 -5.89812 -19.3416
ltibia 57.1883
lfoot -11.1571 5.30479
ltoes -17.8082
1541
root 2.3924 16.502 -4.42902 192.392 -102.822 -185.645
lowerback 1.0365 0.20731 3.63275
upperback 0.461886 0.281921 2.48173
thorax -0.101604 0.128778 0.50491
lowerneck -19.2568 0.20047 1.79276
upperneck 20.3664 -0.115224 -0.982714
head 9.62718 -0.0619261 -0.661099
rclavicle -1.90833e-014 1.27222e-014
rhumerus -30.1825 -3.57366 -81.9452
rradius 22.6095
rwrist 27.3211
rhand -25.9153 2.01385
rfingers 7.12502
rthumb 0.627507 -27.965
lclavicle -1.90833e-014 1.27222e-014
lhumerus -27.1401 1.00334 92.0214
lradius 20.039
lwrist -16.4769
lhand -21.9113 1.97336
lfingers 7.12502
lthumb 4.49439 31.9057
rfemur -16.6072 9.67563 25.5926
rtibia 21.9433
rfoot -10.4248 -14.4096
rtoes -4.99229
lfemur -16.9845 -5.02847 -19.1312
ltibia 58.7692
lfoot -11.5691 6.40668
ltoes -17.1808
1542
root 2.3988 16.5043 -4.44263 192.571 -102.738 -185.91
lowerback 1.21246 0.265084 3.75898
upperback 0.507372 0.367816 2.45235
thorax -0.150992 0.171412 0.402686
lowerneck -19.239 0.190444 1.79032
upperneck 20.25 -0.120878 -1.00296
head 9.58278 -0.0666458 -0.667733
rclavicle 1.90833e-014 -2.5842e-014
rhumerus -29.8497 -3.19781 -82.0656
rradius 22.6069
rwrist 27.084
rhand -26.1053 1.9363
rfingers 7.12502
rthumb 0.444008 -28.043
lclavicle 1.90833e-014 -2.5842e-014
lhumerus -27.2257 0.925324 92.0238
lradius 20.3656
lwrist -15.9703
lhand -22.3376 1.97131
lfingers 7.12502
lthumb 4.08275 31.9119
rfemur -15.8879 9.88805 25.8616
rtibia 21.5359
rfoot -10.5314 -14.5409
rtoes -5.20975
lfemur -18.1018 -4.21052 -19.0496
ltibia 60.0954
lfoot -11.7645 7.28858
ltoes -16.7826
1543
root 2.40666 16.505 -4.45679 192.557 -102.606 -185.96
lowerback 1.3579 0.340363 3.80403
upperback 0.540996 0.475645 2.41405
thorax -0.195108 0.225109 0.336104
lowerneck -19.1581 0.160192 1.70311
upperneck 20.1349 -0.150299 -0.934151
head 9.5272 -0.078855 -0.632517
rclavicle 1.43125e-014 1.27222e-014
rhumerus -29.5319 -3.10267 -82.0585
rradius 22.5611
rwrist 27.2544
rhand -26.0732 1.77043
rfingers 7.12502
rthumb 0.475071 -28.2088
lclavicle 1.43125e-014 1.27222e-014
lhumerus -27.3134 1.04607 91.9597
lradius 20.6523
lwrist -15.4724
lhand -22.7623 1.89593
lfingers 7.12502
lthumb 3.67263 31.844
rfemur -15.267 10.0572 26.076
rtibia 21.2308
rfoot -10.7164 -14.6026
rtoes -5.27966
lfemur -19.1884 -3.43261 -19.0209
ltibia 61.1849
lfoot -12.0357 7.7633
ltoes -16.1001
1544
root 2.41544 16.5032 -4.46885 192.365 -102.495 -185.793
lowerback 1.42858 0.40666 3.80966
upperback 0.59503 0.566178 2.36295
thorax -0.176725 0.271295 0.278964
lowerneck -19.1901 0.127612 1.6458
upperneck 20.0901 -0.186654 -0.895865
head 9.51685 -0.0953956 -0.614449
rclavicle -3.18055e-015 -7.55382e-015
rhumerus -29.1888 -3.0476 -82.0385
rradius 22.6058
rwrist 27.2981
rhand -26.197 1.94285
rfingers 7.12502
rthumb 0.355447 -28.0366
lclavicle -3.18055e-015 -7.55382e-015
lhumerus -27.3909 1.15205 91.9063
lradius 20.8999
lwrist -15.3443
lhand -23.5944 1.81988
lfingers 7.12502
lthumb 2.86908 31.7803
rfemur -14.7463 10.1705 26.2471
rtibia 21.0983
rfoot -11.0231 -14.7012
rtoes -5.28415
lfemur -20.2732 -2.8074 -19.0691
ltibia 62.0421
lfoot -12.2352 7.92211
ltoes -15.7214
1545
root 2.42458 16.5012 -4.4811 191.993 -102.349 -185.375
lowerback 1.4868 0.456759 3.74211
upperback 0.581158 0.637047 2.30394
thorax -0.222119 0.306522 0.254514
lowerneck -19.1353 0.138115 1.6595
upperneck 20.0873 -0.161147 -0.956992
head 9.50608 -0.0897731 -0.634367
rclavicle 1.90833e-014 1.59028e-015
rhumerus -28.934 -2.96607 -82.0143
rradius 22.6146
rwrist 27.3488
rhand -26.2273 1.70621
rfingers 7.12502
rthumb 0.32619 -28.2733
lclavicle 1.90833e-014 1.59028e-015
lhumerus -27.5592 1.34783 91.8379
lradius 21.164
lwrist -15.0168
lhand -24.3498 1.68228
lfingers 7.12502
lthumb 2.13955 31.6513
rfemur -14.3633 10.4376 26.3183
rtibia 21.0596
rfoot -11.3709 -14.8822
rtoes -5.05977
lfemur -21.4126 -2.19074 -19.1841
ltibia 62.6783
lfoot -12.4565 7.78703
ltoes -15.7942
1546
root 2.43571 16.4983 -4.49363 191.821 -102.265 -185.126
lowerback 1.5063 0.509684 3.76784
upperback 0.573059 0.710245 2.2328
thorax -0.238482 0.343376 0.165822
lowerneck -19.0876 0.108298 1.61963
upperneck 20.0374 -0.194299 -0.936128
head 9.47945 -0.10578 -0.624632
rclavicle 2.06736e-014 -2.26615e-014
rhumerus -28.6257 -3.18206 -81.9093
rradius 22.5531
rwrist 27.5607
rhand -26.3923 1.79167
rfingers 7.12502
rthumb 0.166841 -28.188
lclavicle 2.06736e-014 -2.26615e-014
lhumerus -27.6416 1.39502 91.8034
lradius 21.3955
lwrist -14.4099
lhand -25.0346 1.65466
lfingers 7.12502
lthumb 1.47814 31.6293
rfemur -14.0688 10.7129 26.4545
rtibia 21.1256
rfoot -11.7739 -15.1271
rtoes -5.1729
lfemur -22.5806 -1.69266 -19.2463
ltibia 63.0954
lfoot -12.6675 7.26914
ltoes -16.0656
